{
  "asset": {
    "version": "2.0",
    "generator": "THREE.GLTFExporter r173"
  },
  "scenes": [
    {
      "name": "Scene",
      "nodes": [
        10
      ]
    }
  ],
  "scene": 0,
  "nodes": [
    {
      "matrix": [
        2.5,
        0,
        0,
        0,
        0,
        2,
        0,
        0,
        0,
        0,
        0.05000000074505806,
        0,
        0,
        2,
        0,
        1
      ],
      "name": "mur",
      "extras": {
        "name": "mur"
      },
      "mesh": 0
    },
    {
      "matrix": [
        2.5,
        0,
        0,
        0,
        0,
        1,
        0,
        0,
        0,
        0,
        2.5,
        0,
        0,
        0,
        2.5,
        1
      ],
      "name": "sol",
      "extras": {
        "name": "sol"
      },
      "mesh": 1
    },
    {
      "matrix": [
        2,
        0,
        0,
        0,
        0,
        1,
        0,
        0,
        0,
        0,
        0.10000000149011612,
        0,
        0,
        2,
        0.1899999976158142,
        1
      ],
      "name": "Tele",
      "extras": {
        "name": "Tele"
      },
      "mesh": 2
    },
    {
      "matrix": [
        -0.7182441108865985,
        0,
        0,
        0,
        0,
        0.09665884360665634,
        -0.002724772316888372,
        0,
        0,
        -0.010938903268330614,
        -0.38804774024178673,
        0,
        0.7051903009414673,
        0.6295943260192871,
        3.777414321899414,
        1
      ],
      "name": "Cube003",
      "extras": {
        "name": "Cube.003"
      },
      "mesh": 3
    },
    {
      "matrix": [
        -1.436487735982805,
        0,
        0,
        0,
        0,
        -0.01607565581624836,
        0.14390472174726457,
        0,
        0,
        0.43004460623603985,
        0.04804046032364519,
        0,
        -0.025525864213705063,
        0.9805816411972046,
        4.3554205894470215,
        1
      ],
      "name": "Cube002",
      "extras": {
        "name": "Cube.002"
      },
      "mesh": 4
    },
    {
      "matrix": [
        -1.4364876747131348,
        0,
        0,
        0,
        0,
        -0.1933269500732422,
        0,
        0,
        0,
        0,
        0.5392999053001404,
        0,
        -0.020705390721559525,
        0.35979434847831726,
        3.9729676246643066,
        1
      ],
      "name": "Cube001",
      "extras": {
        "name": "Cube.001"
      },
      "mesh": 5
    },
    {
      "matrix": [
        -0.7182441108865985,
        0,
        0,
        0,
        0,
        0.09665884360665634,
        -0.002724772316888372,
        0,
        0,
        -0.010938903268330614,
        -0.38804774024178673,
        0,
        -0.6947956681251526,
        0.6190437078475952,
        3.784315824508667,
        1
      ],
      "name": "Cube004",
      "extras": {
        "name": "Cube.004"
      },
      "mesh": 6
    },
    {
      "matrix": [
        0.04953692333390082,
        0.023799860613189224,
        -0.7161381665307558,
        0,
        0.09642868553141905,
        -0.002944693938967604,
        0.006572336593111995,
        0,
        -0.010912807868474188,
        -0.38780842461358866,
        -0.01364316235863575,
        0,
        -1.491706132888794,
        0.5540869832038879,
        3.954455614089966,
        1
      ],
      "name": "Cube005",
      "extras": {
        "name": "Cube.005"
      },
      "mesh": 7
    },
    {
      "matrix": [
        -0.05264307724719907,
        0.01351792074012361,
        -0.7161845352568206,
        0,
        -0.0964356063652418,
        0.00041550542511501306,
        0.007096334251010565,
        0,
        0.002199489421003437,
        0.3881293453695574,
        0.007164240029388546,
        0,
        1.4751334190368652,
        0.5713876485824585,
        3.925309419631958,
        1
      ],
      "name": "Cube006",
      "extras": {
        "name": "Cube.006"
      },
      "mesh": 8
    },
    {
      "matrix": [
        2.5,
        0,
        0,
        0,
        0,
        2,
        0,
        0,
        0,
        0,
        0.10000000149011612,
        0,
        -0.01976703107357025,
        1.9903095960617065,
        -0.06570541113615036,
        1
      ],
      "name": "Cube",
      "extras": {
        "name": "Cube"
      },
      "mesh": 9
    },
    {
      "name": "Transcendance.glb",
      "children": [
        0,
        1,
        2,
        3,
        4,
        5,
        6,
        7,
        8,
        9
      ]
    }
  ],
  "bufferViews": [
    {
      "buffer": 0,
      "byteOffset": 0,
      "byteLength": 156,
      "target": 34962,
      "byteStride": 12
    },
    {
      "buffer": 0,
      "byteOffset": 156,
      "byteLength": 156,
      "target": 34962,
      "byteStride": 12
    },
    {
      "buffer": 0,
      "byteOffset": 312,
      "byteLength": 104,
      "target": 34962,
      "byteStride": 8
    },
    {
      "buffer": 0,
      "byteOffset": 416,
      "byteLength": 68,
      "target": 34963
    },
    {
      "buffer": 0,
      "byteOffset": 484,
      "byteLength": 48,
      "target": 34962,
      "byteStride": 12
    },
    {
      "buffer": 0,
      "byteOffset": 532,
      "byteLength": 48,
      "target": 34962,
      "byteStride": 12
    },
    {
      "buffer": 0,
      "byteOffset": 580,
      "byteLength": 32,
      "target": 34962,
      "byteStride": 8
    },
    {
      "buffer": 0,
      "byteOffset": 612,
      "byteLength": 12,
      "target": 34963
    },
    {
      "buffer": 0,
      "byteOffset": 624,
      "byteLength": 336,
      "target": 34962,
      "byteStride": 12
    },
    {
      "buffer": 0,
      "byteOffset": 960,
      "byteLength": 336,
      "target": 34962,
      "byteStride": 12
    },
    {
      "buffer": 0,
      "byteOffset": 1296,
      "byteLength": 224,
      "target": 34962,
      "byteStride": 8
    },
    {
      "buffer": 0,
      "byteOffset": 1520,
      "byteLength": 120,
      "target": 34963
    },
    {
      "buffer": 0,
      "byteOffset": 1640,
      "byteLength": 32628,
      "target": 34962,
      "byteStride": 12
    },
    {
      "buffer": 0,
      "byteOffset": 34268,
      "byteLength": 32628,
      "target": 34962,
      "byteStride": 12
    },
    {
      "buffer": 0,
      "byteOffset": 66896,
      "byteLength": 21752,
      "target": 34962,
      "byteStride": 8
    },
    {
      "buffer": 0,
      "byteOffset": 88648,
      "byteLength": 28332,
      "target": 34963
    },
    {
      "buffer": 0,
      "byteOffset": 116980,
      "byteLength": 32868,
      "target": 34962,
      "byteStride": 12
    },
    {
      "buffer": 0,
      "byteOffset": 149848,
      "byteLength": 32868,
      "target": 34962,
      "byteStride": 12
    },
    {
      "buffer": 0,
      "byteOffset": 182716,
      "byteLength": 21912,
      "target": 34962,
      "byteStride": 8
    },
    {
      "buffer": 0,
      "byteOffset": 204628,
      "byteLength": 28572,
      "target": 34963
    },
    {
      "buffer": 0,
      "byteOffset": 233200,
      "byteLength": 32868,
      "target": 34962,
      "byteStride": 12
    },
    {
      "buffer": 0,
      "byteOffset": 266068,
      "byteLength": 32868,
      "target": 34962,
      "byteStride": 12
    },
    {
      "buffer": 0,
      "byteOffset": 298936,
      "byteLength": 21912,
      "target": 34962,
      "byteStride": 8
    },
    {
      "buffer": 0,
      "byteOffset": 320848,
      "byteLength": 28572,
      "target": 34963
    },
    {
      "buffer": 0,
      "byteOffset": 349420,
      "byteLength": 32628,
      "target": 34962,
      "byteStride": 12
    },
    {
      "buffer": 0,
      "byteOffset": 382048,
      "byteLength": 32628,
      "target": 34962,
      "byteStride": 12
    },
    {
      "buffer": 0,
      "byteOffset": 414676,
      "byteLength": 21752,
      "target": 34962,
      "byteStride": 8
    },
    {
      "buffer": 0,
      "byteOffset": 436428,
      "byteLength": 28332,
      "target": 34963
    },
    {
      "buffer": 0,
      "byteOffset": 464760,
      "byteLength": 32628,
      "target": 34962,
      "byteStride": 12
    },
    {
      "buffer": 0,
      "byteOffset": 497388,
      "byteLength": 32628,
      "target": 34962,
      "byteStride": 12
    },
    {
      "buffer": 0,
      "byteOffset": 530016,
      "byteLength": 21752,
      "target": 34962,
      "byteStride": 8
    },
    {
      "buffer": 0,
      "byteOffset": 551768,
      "byteLength": 28332,
      "target": 34963
    },
    {
      "buffer": 0,
      "byteOffset": 580100,
      "byteLength": 32628,
      "target": 34962,
      "byteStride": 12
    },
    {
      "buffer": 0,
      "byteOffset": 612728,
      "byteLength": 32628,
      "target": 34962,
      "byteStride": 12
    },
    {
      "buffer": 0,
      "byteOffset": 645356,
      "byteLength": 21752,
      "target": 34962,
      "byteStride": 8
    },
    {
      "buffer": 0,
      "byteOffset": 667108,
      "byteLength": 28332,
      "target": 34963
    },
    {
      "buffer": 0,
      "byteOffset": 695440,
      "byteLength": 648,
      "target": 34962,
      "byteStride": 12
    },
    {
      "buffer": 0,
      "byteOffset": 696088,
      "byteLength": 648,
      "target": 34962,
      "byteStride": 12
    },
    {
      "buffer": 0,
      "byteOffset": 696736,
      "byteLength": 432,
      "target": 34962,
      "byteStride": 8
    },
    {
      "buffer": 0,
      "byteOffset": 697168,
      "byteLength": 252,
      "target": 34963
    }
  ],
  "buffers": [
    {
      "byteLength": 697420,
      "uri": "data:application/octet-stream;base64,"
    }
  ],
  "accessors": [
    {
      "bufferView": 0,
      "componentType": 5126,
      "count": 13,
      "max": [
        1,
        1,
        1
      ],
      "min": [
        -1,
        -1,
        1
      ],
      "type": "VEC3"
    },
    {
      "bufferView": 1,
      "componentType": 5126,
      "count": 13,
      "max": [
        0,
        0,
        1
      ],
      "min": [
        0,
        0,
        1
      ],
      "type": "VEC3"
    },
    {
      "bufferView": 2,
      "componentType": 5126,
      "count": 13,
      "max": [
        0.625,
        0.25
      ],
      "min": [
        0.375,
        0
      ],
      "type": "VEC2"
    },
    {
      "bufferView": 3,
      "componentType": 5123,
      "count": 33,
      "max": [
        12
      ],
      "min": [
        0
      ],
      "type": "SCALAR"
    },
    {
      "bufferView": 4,
      "componentType": 5126,
      "count": 4,
      "max": [
        1,
        0,
        1
      ],
      "min": [
        -1,
        -0.014158742502331734,
        -1
      ],
      "type": "VEC3"
    },
    {
      "bufferView": 5,
      "componentType": 5126,
      "count": 4,
      "max": [
        0.0034999570343643427,
        0.9999877214431763,
        -0.0034999570343643427
      ],
      "min": [
        0.0034999570343643427,
        0.9999877214431763,
        -0.0034999570343643427
      ],
      "type": "VEC3"
    },
    {
      "bufferView": 6,
      "componentType": 5126,
      "count": 4,
      "max": [
        1,
        1
      ],
      "min": [
        0,
        0
      ],
      "type": "VEC2"
    },
    {
      "bufferView": 7,
      "componentType": 5123,
      "count": 6,
      "max": [
        3
      ],
      "min": [
        0
      ],
      "type": "SCALAR"
    },
    {
      "bufferView": 8,
      "componentType": 5126,
      "count": 28,
      "max": [
        1,
        1,
        1
      ],
      "min": [
        -1,
        -1,
        -1
      ],
      "type": "VEC3"
    },
    {
      "bufferView": 9,
      "componentType": 5126,
      "count": 28,
      "max": [
        1,
        1,
        1
      ],
      "min": [
        -1,
        -1,
        -1
      ],
      "type": "VEC3"
    },
    {
      "bufferView": 10,
      "componentType": 5126,
      "count": 28,
      "max": [
        0.875,
        1
      ],
      "min": [
        0.125,
        0
      ],
      "type": "VEC2"
    },
    {
      "bufferView": 11,
      "componentType": 5123,
      "count": 60,
      "max": [
        27
      ],
      "min": [
        0
      ],
      "type": "SCALAR"
    },
    {
      "bufferView": 12,
      "componentType": 5126,
      "count": 2719,
      "max": [
        1,
        1,
        1
      ],
      "min": [
        -1,
        -1,
        -1
      ],
      "type": "VEC3"
    },
    {
      "bufferView": 13,
      "componentType": 5126,
      "count": 2719,
      "max": [
        1,
        1,
        1
      ],
      "min": [
        -1,
        -1,
        -1
      ],
      "type": "VEC3"
    },
    {
      "bufferView": 14,
      "componentType": 5126,
      "count": 2719,
      "max": [
        0.875,
        1
      ],
      "min": [
        0.125,
        0
      ],
      "type": "VEC2"
    },
    {
      "bufferView": 15,
      "componentType": 5123,
      "count": 14166,
      "max": [
        2718
      ],
      "min": [
        0
      ],
      "type": "SCALAR"
    },
    {
      "bufferView": 16,
      "componentType": 5126,
      "count": 2739,
      "max": [
        1,
        1,
        1
      ],
      "min": [
        -1,
        -1,
        -1
      ],
      "type": "VEC3"
    },
    {
      "bufferView": 17,
      "componentType": 5126,
      "count": 2739,
      "max": [
        1,
        1,
        1
      ],
      "min": [
        -1,
        -1,
        -1
      ],
      "type": "VEC3"
    },
    {
      "bufferView": 18,
      "componentType": 5126,
      "count": 2739,
      "max": [
        0.875,
        1
      ],
      "min": [
        0.125,
        0
      ],
      "type": "VEC2"
    },
    {
      "bufferView": 19,
      "componentType": 5123,
      "count": 14286,
      "max": [
        2738
      ],
      "min": [
        0
      ],
      "type": "SCALAR"
    },
    {
      "bufferView": 20,
      "componentType": 5126,
      "count": 2739,
      "max": [
        1,
        1,
        1
      ],
      "min": [
        -1,
        -1,
        -1
      ],
      "type": "VEC3"
    },
    {
      "bufferView": 21,
      "componentType": 5126,
      "count": 2739,
      "max": [
        1,
        1,
        1
      ],
      "min": [
        -1,
        -1,
        -1
      ],
      "type": "VEC3"
    },
    {
      "bufferView": 22,
      "componentType": 5126,
      "count": 2739,
      "max": [
        0.875,
        1
      ],
      "min": [
        0.125,
        0
      ],
      "type": "VEC2"
    },
    {
      "bufferView": 23,
      "componentType": 5123,
      "count": 14286,
      "max": [
        2738
      ],
      "min": [
        0
      ],
      "type": "SCALAR"
    },
    {
      "bufferView": 24,
      "componentType": 5126,
      "count": 2719,
      "max": [
        1,
        1,
        1
      ],
      "min": [
        -1,
        -1,
        -1
      ],
      "type": "VEC3"
    },
    {
      "bufferView": 25,
      "componentType": 5126,
      "count": 2719,
      "max": [
        1,
        1,
        1
      ],
      "min": [
        -1,
        -1,
        -1
      ],
      "type": "VEC3"
    },
    {
      "bufferView": 26,
      "componentType": 5126,
      "count": 2719,
      "max": [
        0.875,
        1
      ],
      "min": [
        0.125,
        0
      ],
      "type": "VEC2"
    },
    {
      "bufferView": 27,
      "componentType": 5123,
      "count": 14166,
      "max": [
        2718
      ],
      "min": [
        0
      ],
      "type": "SCALAR"
    },
    {
      "bufferView": 28,
      "componentType": 5126,
      "count": 2719,
      "max": [
        1,
        1,
        1
      ],
      "min": [
        -1,
        -1,
        -1
      ],
      "type": "VEC3"
    },
    {
      "bufferView": 29,
      "componentType": 5126,
      "count": 2719,
      "max": [
        1,
        1,
        1
      ],
      "min": [
        -1,
        -1,
        -1
      ],
      "type": "VEC3"
    },
    {
      "bufferView": 30,
      "componentType": 5126,
      "count": 2719,
      "max": [
        0.875,
        1
      ],
      "min": [
        0.125,
        0
      ],
      "type": "VEC2"
    },
    {
      "bufferView": 31,
      "componentType": 5123,
      "count": 14166,
      "max": [
        2718
      ],
      "min": [
        0
      ],
      "type": "SCALAR"
    },
    {
      "bufferView": 32,
      "componentType": 5126,
      "count": 2719,
      "max": [
        1,
        1,
        1
      ],
      "min": [
        -1,
        -1,
        -1
      ],
      "type": "VEC3"
    },
    {
      "bufferView": 33,
      "componentType": 5126,
      "count": 2719,
      "max": [
        1,
        1,
        1
      ],
      "min": [
        -1,
        -1,
        -1
      ],
      "type": "VEC3"
    },
    {
      "bufferView": 34,
      "componentType": 5126,
      "count": 2719,
      "max": [
        0.875,
        1
      ],
      "min": [
        0.125,
        0
      ],
      "type": "VEC2"
    },
    {
      "bufferView": 35,
      "componentType": 5123,
      "count": 14166,
      "max": [
        2718
      ],
      "min": [
        0
      ],
      "type": "SCALAR"
    },
    {
      "bufferView": 36,
      "componentType": 5126,
      "count": 54,
      "max": [
        1,
        1,
        1
      ],
      "min": [
        -1,
        -1,
        -1
      ],
      "type": "VEC3"
    },
    {
      "bufferView": 37,
      "componentType": 5126,
      "count": 54,
      "max": [
        1,
        1,
        1
      ],
      "min": [
        -1,
        -1,
        -1
      ],
      "type": "VEC3"
    },
    {
      "bufferView": 38,
      "componentType": 5126,
      "count": 54,
      "max": [
        0.715950608253479,
        1
      ],
      "min": [
        0.125,
        0
      ],
      "type": "VEC2"
    },
    {
      "bufferView": 39,
      "componentType": 5123,
      "count": 126,
      "max": [
        53
      ],
      "min": [
        0
      ],
      "type": "SCALAR"
    }
  ],
  "materials": [
    {
      "pbrMetallicRoughness": {
        "baseColorFactor": [
          0.7991027380100881,
          0.23074004851362045,
          0.34670405634441115,
          1
        ],
        "metallicFactor": 0,
        "roughnessFactor": 0.5
      },
      "emissiveFactor": [
        0.7991027380100881,
        0.23074004851362045,
        0.34670405634441115
      ],
      "doubleSided": true,
      "name": "Material.009"
    },
    {
      "pbrMetallicRoughness": {
        "baseColorFactor": [
          0.7991027380100881,
          0.46207699964472876,
          0.55201140150344,
          1
        ],
        "metallicFactor": 0,
        "roughnessFactor": 0.5
      },
      "emissiveFactor": [
        0.7991027380100881,
        0.46207699964472876,
        0.55201140150344
      ],
      "doubleSided": true,
      "name": "Material.007"
    },
    {
      "pbrMetallicRoughness": {
        "baseColorFactor": [
          0,
          0,
          0,
          1
        ],
        "metallicFactor": 0,
        "roughnessFactor": 0.5
      },
      "doubleSided": true,
      "name": "Material.008"
    },
    {
      "pbrMetallicRoughness": {
        "baseColorFactor": [
          0.7991027380100881,
          0.14412847084818123,
          0.2663556047920505,
          1
        ],
        "metallicFactor": 0,
        "roughnessFactor": 0.5
      },
      "emissiveFactor": [
        0.7991027380100881,
        0.14412847084818123,
        0.2663556047920505
      ],
      "doubleSided": true,
      "name": "Material.006"
    },
    {
      "pbrMetallicRoughness": {
        "baseColorFactor": [
          0.7991027380100881,
          0.13286832154414627,
          0.2501582847191642,
          1
        ],
        "metallicFactor": 0,
        "roughnessFactor": 0.5
      },
      "emissiveFactor": [
        0.7991027380100881,
        0.14412847084818123,
        0.2663556047920505
      ],
      "doubleSided": true,
      "name": "Material.003"
    },
    {
      "pbrMetallicRoughness": {
        "baseColorFactor": [
          0.7991027380100881,
          0.1412632911304446,
          0.2788942634659966,
          1
        ],
        "metallicFactor": 0,
        "roughnessFactor": 0.5
      },
      "emissiveFactor": [
        0.7991027380100881,
        0.14412847084818123,
        0.2663556047920505
      ],
      "doubleSided": true,
      "name": "Material.002"
    },
    {
      "pbrMetallicRoughness": {
        "baseColorFactor": [
          0.7991027380100881,
          0.11443537381770343,
          0.21952619971859377,
          1
        ],
        "metallicFactor": 0,
        "roughnessFactor": 0.5
      },
      "emissiveFactor": [
        0.7991027380100881,
        0.14412847084818123,
        0.2663556047920505
      ],
      "doubleSided": true,
      "name": "Material.005"
    },
    {
      "pbrMetallicRoughness": {
        "baseColorFactor": [
          0.7991027380100881,
          0.13286832154414627,
          0.3005437944049895,
          1
        ],
        "metallicFactor": 0,
        "roughnessFactor": 0.5
      },
      "emissiveFactor": [
        0.7991027380100881,
        0.14412847084818123,
        0.2663556047920505
      ],
      "doubleSided": true,
      "name": "Material.004"
    },
    {
      "pbrMetallicRoughness": {
        "baseColorFactor": [
          0.8307698767709715,
          0.12477181755144427,
          0.2541520943200296,
          1
        ],
        "metallicFactor": 0,
        "roughnessFactor": 0.5
      },
      "emissiveFactor": [
        0.7991027380100881,
        0.14412847084818123,
        0.2663556047920505
      ],
      "doubleSided": true,
      "name": "Material.001"
    },
    {
      "pbrMetallicRoughness": {
        "baseColorFactor": [
          0.7991027380100881,
          0.35640014413537763,
          0.22322795730611386,
          1
        ],
        "metallicFactor": 0,
        "roughnessFactor": 0.5
      },
      "emissiveFactor": [
        0.7991027380100881,
        0.35640014413537763,
        0.22322795730611386
      ],
      "doubleSided": true,
      "name": "Material.010"
    }
  ],
  "meshes": [
    {
      "primitives": [
        {
          "mode": 4,
          "attributes": {
            "POSITION": 0,
            "NORMAL": 1,
            "TEXCOORD_0": 2
          },
          "indices": 3,
          "material": 0
        }
      ]
    },
    {
      "primitives": [
        {
          "mode": 4,
          "attributes": {
            "POSITION": 4,
            "NORMAL": 5,
            "TEXCOORD_0": 6
          },
          "indices": 7,
          "material": 1
        }
      ]
    },
    {
      "primitives": [
        {
          "mode": 4,
          "attributes": {
            "POSITION": 8,
            "NORMAL": 9,
            "TEXCOORD_0": 10
          },
          "indices": 11,
          "material": 2
        }
      ]
    },
    {
      "primitives": [
        {
          "mode": 4,
          "attributes": {
            "POSITION": 12,
            "NORMAL": 13,
            "TEXCOORD_0": 14
          },
          "indices": 15,
          "material": 3
        }
      ]
    },
    {
      "primitives": [
        {
          "mode": 4,
          "attributes": {
            "POSITION": 16,
            "NORMAL": 17,
            "TEXCOORD_0": 18
          },
          "indices": 19,
          "material": 4
        }
      ]
    },
    {
      "primitives": [
        {
          "mode": 4,
          "attributes": {
            "POSITION": 20,
            "NORMAL": 21,
            "TEXCOORD_0": 22
          },
          "indices": 23,
          "material": 5
        }
      ]
    },
    {
      "primitives": [
        {
          "mode": 4,
          "attributes": {
            "POSITION": 24,
            "NORMAL": 25,
            "TEXCOORD_0": 26
          },
          "indices": 27,
          "material": 6
        }
      ]
    },
    {
      "primitives": [
        {
          "mode": 4,
          "attributes": {
            "POSITION": 28,
            "NORMAL": 29,
            "TEXCOORD_0": 30
          },
          "indices": 31,
          "material": 7
        }
      ]
    },
    {
      "primitives": [
        {
          "mode": 4,
          "attributes": {
            "POSITION": 32,
            "NORMAL": 33,
            "TEXCOORD_0": 34
          },
          "indices": 35,
          "material": 8
        }
      ]
    },
    {
      "primitives": [
        {
          "mode": 4,
          "attributes": {
            "POSITION": 36,
            "NORMAL": 37,
            "TEXCOORD_0": 38
          },
          "indices": 39,
          "material": 9
        }
      ]
    }
  ]
}